<svg width="44" height="44" viewBox="0 0 44 44" fill="none" xmlns="http://www.w3.org/2000/svg">
<rect width="44" height="44" rx="22" fill="#FFC565"/>
<path d="M30.7832 13.2174C30.682 13.1167 30.5541 13.047 30.4146 13.0164C30.2751 12.9858 30.1298 12.9957 29.9957 13.0449L13.4957 19.0449C13.3534 19.0989 13.2309 19.1949 13.1445 19.3202C13.058 19.4454 13.0117 19.594 13.0117 19.7462C13.0117 19.8984 13.058 20.047 13.1445 20.1722C13.2309 20.2975 13.3534 20.3935 13.4957 20.4474L20.6957 23.3274L23.5757 30.5274C23.6298 30.6635 23.7226 30.7807 23.8425 30.8647C23.9625 30.9487 24.1044 30.9957 24.2507 30.9999C24.4023 30.9968 24.5494 30.9479 24.6725 30.8595C24.7957 30.7711 24.8892 30.6475 24.9407 30.5049L30.9407 14.0049C30.9918 13.8723 31.0042 13.7278 30.9763 13.5883C30.9484 13.4489 30.8814 13.3203 30.7832 13.2174ZM24.2507 28.1499L22.1582 22.8999L25.222 19.8362C25.514 19.5442 25.514 19.0707 25.222 18.7787C24.93 18.4867 24.4565 18.4867 24.1645 18.7787L21.0707 21.8724L15.8507 19.7499L28.9982 15.0024L24.2507 28.1499Z" fill="white"/>
</svg>
