<svg width="26" height="28" viewBox="0 0 26 28" fill="none" xmlns="http://www.w3.org/2000/svg">
<path d="M2.45801 21.1305C2.68147 21.0212 2.90988 20.9293 3.14324 20.8548C3.3766 20.7806 3.62847 20.7435 3.89886 20.7435H5.28966V4.33317H3.89886C3.49048 4.33317 3.1483 4.47806 2.87231 4.76784C2.59611 5.05761 2.45801 5.4085 2.45801 5.8205V21.1305ZM3.89886 27.6665C2.96047 27.6665 2.16275 27.3299 1.50573 26.6568C0.848914 25.9837 0.520508 25.1664 0.520508 24.2048V5.8205C0.520508 4.85184 0.848914 4.02839 1.50573 3.35017C2.16275 2.67217 2.96047 2.33317 3.89886 2.33317H13.1143V4.33317H7.22716V20.7435H15.7722V15.9998H17.7097V22.7435H3.89886C3.49974 22.7435 3.15981 22.8833 2.87909 23.1628C2.59837 23.4426 2.45801 23.7893 2.45801 24.2028C2.45801 24.6162 2.59837 24.9635 2.87909 25.2448C3.15981 25.5259 3.49974 25.6665 3.89886 25.6665H20.5413V14.6665H22.4788V27.6665H3.89886ZM18.6038 14.6665C18.6038 12.7149 19.2614 11.0604 20.5765 9.70284C21.8917 8.34528 23.4945 7.6665 25.3851 7.6665C23.4945 7.6665 21.8917 6.98773 20.5765 5.63017C19.2614 4.27261 18.6038 2.61806 18.6038 0.666504C18.6038 2.61806 17.9463 4.27261 16.6311 5.63017C15.316 6.98773 13.7132 7.6665 11.8226 7.6665C13.7132 7.6665 15.316 8.34528 16.6311 9.70284C17.9463 11.0604 18.6038 12.7149 18.6038 14.6665Z" fill="#0460D9"/>
</svg>
